# xmcd CD database file
#
# Track frame offsets:
#	150
#	13421
#	26761
#	41058
#	54700
#	69407
#	82931
#	98651
#	114080
#	127248
#	141503
#	157539
#	172401
#	186716
#
# Disc length: 2709 seconds
#
# Revision: 0
# Processed by: cddbd v1.5.1PL0 Copyright (c) Steve Scherf et al.
# Submitted via: CDex 1.50beta10
#
DISCID=c80a930e
DTITLE=Cristian Greik  ( www.estilocountry.net ) - Cowboy di  and  ( www.estilocountry.net )
DYEAR=2005
DGENRE=Country
TTITLE0=01 - Cowboy di +
TTITLE1=02 - Caminhonete arrojada
TTITLE2=03 - Nóis é Caipira
TTITLE3=04 - Arueira
TTITLE4=05 - Cadê nosso amor
TTITLE5=06 - O show não pode parar
TTITLE6=07 - Festa de peão
TTITLE7=08 - Pizeiro do amor
TTITLE8=09 - Balança comigo
TTITLE9=10 - Sem carro, sem mulher
TTITLE10=11 - Tenho sofrido mas tenho bebido
TTITLE11=12 - Se a solidão te pegar
TTITLE12=13 - Bruto pesado e arrojado
TTITLE13=14 - Comitiva Vitória a Barretos
EXTD=YEAR: 2005
EXTT0=
EXTT1=
EXTT2=
EXTT3=
EXTT4=
EXTT5=
EXTT6=
EXTT7=
EXTT8=
EXTT9=
EXTT10=
EXTT11=
EXTT12=
EXTT13=
PLAYORDER=
